<svg xmlns="http://www.w3.org/2000/svg" version="1.1" xmlns:xlink="http://www.w3.org/1999/xlink" xmlns:svgjs="http://svgjs.dev/svgjs" width="48px" height="48px"><svg width="48px" height="48px" viewBox="0 0 48 48" version="1.1" xmlns="http://www.w3.org/2000/svg" xmlns:xlink="http://www.w3.org/1999/xlink">
    <title>Light Favicon</title>
    <g id="SvgjsG1009" stroke="none" stroke-width="1" fill="none" fill-rule="evenodd">
        <g id="SvgjsG1008" fill-rule="nonzero" stroke="#000000" stroke-width="2">
            <path d="M31.961128,1 C32.3025724,1 32.6226551,1.11459825 32.879511,1.31162745 C33.1365011,1.50875958 33.3301901,1.78838459 33.4186676,2.11796323 L40.6774105,29.1867172 C40.781882,29.5750702 40.7267099,29.9889596 40.5234211,30.3368658 L31.2396726,46.2511943 C30.9690307,46.7148069 30.4730441,47 29.9357622,47 L8.71541374,47 C8.29895069,47 7.92177145,46.8310013 7.64869751,46.5579274 C7.37569748,46.2849273 7.20670294,45.9078356 7.20670294,45.4912892 L7.20670294,2.5087108 C7.20670294,2.09216435 7.37569748,1.71507266 7.64869751,1.44207263 C7.92177145,1.1689987 8.29895069,1 8.71541374,1 L31.961128,1 Z" id="SvgjsPath1007"></path>
        </g>
    </g>
</svg><style>@media (prefers-color-scheme: light) { :root { filter: none; } }
@media (prefers-color-scheme: dark) { :root { filter: invert(100%); } }
</style></svg>